<mxfile host="app.diagrams.net" modified="2023-08-25T14:28:54.446Z" agent="Mozilla/5.0 (X11; Linux x86_64; rv:103.0) Gecko/20100101 Firefox/103.0" version="21.6.9" etag="6qBke5OrJ0ILjeNxtf3W" type="github">
  <diagram name="PÃ¡gina-1" id="Hvk7WcM7nriKo8mAwkwj">
    <mxGraphModel>
      <root>
        <mxCell id="0" />
        <mxCell id="1" parent="0" />
      </root>
    </mxGraphModel>
  </diagram>
</mxfile>
